HIERARCHY
ROOT Hips
{
  OFFSET 7.333 -26.027 -164.856
  CHANNELS 6 Xposition Yposition Zposition Zrotation Xrotation Yrotation
  JOINT LeftUpLeg
  {
    OFFSET 10.092 0.000 0.000
    CHANNELS 3 Zrotation Xrotation Yrotation
    JOINT LeftLeg
    {
      OFFSET 0.000 -38.160 -0.000
    CHANNELS 3 Zrotation Xrotation Yrotation
      JOINT LeftFoot
      {
        OFFSET -0.000 -24.040 0.000
    CHANNELS 3 Zrotation Xrotation Yrotation
        End Site
        {
          OFFSET -0.000 0.000 12.945
        }
      }
    }
  }
  JOINT RightUpLeg
  {
    OFFSET -10.092 -0.000 0.000
    CHANNELS 3 Zrotation Xrotation Yrotation
    JOINT RightLeg
    {
      OFFSET 0.000 -33.046 0.000
    CHANNELS 3 Zrotation Xrotation Yrotation
      JOINT RightFoot
      {
        OFFSET 0.000 -22.031 -0.000
    CHANNELS 3 Zrotation Xrotation Yrotation
        End Site
        {
          OFFSET 0.000 -0.000 11.863
        }
      }
    }
  }
  JOINT Spine
  {
    OFFSET -0.000 16.511 0.000
    CHANNELS 3 Zrotation Xrotation Yrotation
    JOINT LeftShoulder
    {
      OFFSET 0 16.511 0
    CHANNELS 3 Zrotation Xrotation Yrotation
      JOINT LeftArm
      {
        OFFSET 16.337 0.000 0.000
    CHANNELS 3 Zrotation Xrotation Yrotation
        JOINT LeftForeArm
        {
          OFFSET 0.000 -24.030 0.000
    CHANNELS 3 Zrotation Xrotation Yrotation
          JOINT LeftHand
          {
            OFFSET 0.000 -17.629 -0.000
    CHANNELS 3 Zrotation Xrotation Yrotation
            End Site
            {
              OFFSET 0.000 -11.753 -0.000
            }
          }
        }
      }
    }
    JOINT RightShoulder
    {
      OFFSET 0 16.511 0
    CHANNELS 3 Zrotation Xrotation Yrotation
      JOINT RightArm
      {
        OFFSET -16.337 0.000 0.000
    CHANNELS 3 Zrotation Xrotation Yrotation
        JOINT RightForeArm
        {
          OFFSET -0.000 -19.534 0.000
    CHANNELS 3 Zrotation Xrotation Yrotation
          JOINT RightHand
          {
            OFFSET 0.000 -19.514 -0.000
    CHANNELS 3 Zrotation Xrotation Yrotation
            End Site
            {
              OFFSET 0.000 -13.010 -0.000
            }
          }
        }
      }
    }
    JOINT Neck
    {
      OFFSET -0.000 16.511 0.000
    CHANNELS 3 Zrotation Xrotation Yrotation
      JOINT Head
      {
        OFFSET -0.000 12.493 -0.000
    CHANNELS 3 Zrotation Xrotation Yrotation
        End Site
        {
          OFFSET -0.000 8.328 -0.000
        }
      }
    }
  }
}
MOTION
Frames: 12
Frame Time: 0.0333333
0 0 0 9.363040e-01 -2.720872e+00 -8.663190e+00 -4.019100e+00 1.449610e+01 1.007600e+00 3.475620e+00 -1.292880e+01 -9.293700e-02 0 0 0 -2.651640e+00 1.631040e+01 7.451920e-01 2.900970e+00 -1.666230e+01 1.021000e-01 0 0 0 2.646978e-23 0 -2.500000e-05 0 0 0 1.618400e+01 -4.566020e+01 -6.503640e+01 1.138930e+02 -9.937750e+00 1.487370e+02 0 1.000000e-06 2.000000e-06 0 0 0 -3.696510e+00 -4.995790e+01 8.620620e+01 -1.082970e+02 -9.242970e+00 -1.607690e+02 0 0 0 1.505520e-01 1.835460e-01 -4.820000e-04 0 0 1.000000e-06 
0 0 0 4.806510e-01 -2.915622e+00 -6.921080e+00 -2.992590e+00 1.605600e+01 8.283880e-01 3.256350e+00 -1.572570e+01 1.031450e-01 0 0 0 -1.124630e+00 1.771710e+01 3.422980e-01 1.672110e+00 -1.786770e+01 1.843390e-01 0 0 0 2.646978e-23 0 5.900000e-05 0 0 0 2.364220e+00 -4.902100e+01 -8.565610e+01 1.125270e+02 -1.458270e+01 1.398320e+02 0 -1.000000e-06 0 0 0 0 9.643290e+00 -4.897890e+01 1.020900e+02 -1.041800e+02 -1.469880e+01 -1.422850e+02 0 0 2.000000e-06 -3.204390e-01 -1.088530e+00 -6.089000e-03 0 0 1.000000e-06 
0 0 0 2.045071e-01 -2.282931e+00 -8.801072e+00 -2.870350e+00 1.540410e+01 7.630430e-01 3.491732e+00 -1.502700e+01 1.886190e-01 0 0 -4.261848e-08 -1.035630e+00 1.752420e+01 3.118810e-01 1.962021e+00 -1.802530e+01 3.013313e-01 0 0 -2.542381e-09 -1.024666e-07 2.417013e-07 -2.400000e-05 0 0 0 -5.222778e+00 -4.681004e+01 -9.721819e+01 1.119697e+02 -1.877026e+01 1.339270e+02 3.512294e-08 -1.655985e-07 2.646978e-23 0 0 0 7.359945e+00 -4.145569e+01 1.006319e+02 -1.080990e+02 -2.815043e+01 -1.301313e+02 3.275007e-08 7.525260e-08 1.000000e-06 -1.893860e-01 -1.595020e+00 -5.284446e-03 0 0 7.715143e-07 
0 0 0 1.062695e-01 -2.521990e+00 -1.002818e+01 -2.325144e+00 1.570600e+01 6.292605e-01 2.435718e+00 -1.396632e+01 4.458400e-02 0 0 6.228760e-08 -1.175509e+00 1.752132e+01 3.549746e-01 2.494910e+00 -1.766421e+01 4.160101e-01 0 0 -2.708502e-07 -7.953549e-08 4.034273e-07 -1.106280e-05 0 0 0 -3.394586e+00 -3.870931e+01 -9.560803e+01 1.157519e+02 -2.603329e+01 1.318390e+02 1.570535e-07 NaN -5.937499e-08 0 0 0 1.794052e+00 -3.480402e+01 9.379040e+01 -1.137445e+02 -4.126842e+01 -1.283407e+02 4.226863e-08 -1.117364e-07 1.000000e-06 -1.065200e-01 -2.187770e+00 -4.120826e-03 0 0 NaN 
0 0 0 5.065893e-01 -2.264119e+00 -9.957669e+00 -2.524242e+00 1.619724e+01 7.049081e-01 2.156560e+00 -1.491764e+01 -6.922500e-02 0 0 5.311170e-08 -1.732178e+00 1.808833e+01 5.365322e-01 3.058145e+00 -1.908912e+01 4.612655e-01 0 0 NaN -1.460814e-07 3.934578e-07 -3.695460e-05 0 0 0 -7.014187e+00 -3.884139e+01 -1.019657e+02 1.126528e+02 -2.580563e+01 1.279287e+02 NaN -2.927365e-07 -3.342124e-08 0 0 0 -1.088720e+00 -3.144661e+01 8.929989e+01 -1.176900e+02 -4.601296e+01 -1.303571e+02 3.062033e-08 -6.640902e-08 -9.601577e-07 1.705128e-02 -2.488454e+00 5.523478e-04 0 0 NaN 
0 0 0 2.286422e-01 -8.548049e-02 -8.802712e+00 -2.496621e+00 1.391304e+01 6.002290e-01 2.894949e+00 -1.512269e+01 1.240103e-01 0 0 3.459482e-08 -1.554598e+00 1.639037e+01 4.381406e-01 3.349647e+00 -1.991648e+01 6.346169e-01 0 0 NaN -1.092858e-07 3.267997e-07 -2.598941e-05 0 0 0 -1.773119e+01 -4.680165e+01 -1.152747e+02 1.051878e+02 -2.142475e+01 1.182924e+02 NaN NaN -2.023376e-07 0 0 0 -2.982203e+00 -2.997110e+01 8.588320e+01 -1.228090e+02 -4.486508e+01 -1.355794e+02 4.007075e-08 -9.553780e-08 -5.577441e-07 7.069091e-01 -6.453083e+00 7.649097e-02 0 0 -7.390056e-07 
0 0 0 -5.605732e-01 -4.963920e-01 -7.346174e+00 -1.160378e-01 1.564516e+01 2.550312e-02 1.255560e+00 -1.793780e+01 3.611040e-01 0 0 5.604819e-08 8.210334e-01 1.586420e+01 -2.297097e-01 1.671921e+00 -1.856270e+01 7.904114e-01 0 0 4.039562e-09 -4.733290e-08 2.274909e-07 4.300000e-05 0 0 0 -1.612840e+01 -5.024105e+01 -1.116190e+02 1.036643e+02 -2.177203e+01 1.133618e+02 -1.785123e-07 NaN NaN 0 0 0 8.882025e+00 -3.724124e+01 1.034746e+02 -1.092280e+02 -3.008238e+01 -1.321632e+02 6.168176e-08 -1.206570e-07 NaN 1.685640e+00 -3.800980e+00 NaN 0 0 NaN 
0 0 0 -8.216600e-02 -1.482685e+00 -9.669060e+00 -9.409950e-01 1.612677e+01 2.614200e-01 1.209980e+00 -1.701070e+01 8.951100e-02 0 0 1.330389e-07 -1.868150e-01 1.710126e+01 5.497500e-02 2.167810e+00 -1.871836e+01 6.386800e-01 0 0 3.717475e-08 -5.800066e-08 3.724445e-07 1.800000e-05 0 0 0 -4.778040e+00 -4.873802e+01 -9.645050e+01 1.099425e+02 -2.158115e+01 1.263642e+02 NaN -3.660874e-07 NaN 0 0 0 1.549626e+01 -4.557264e+01 1.102216e+02 -1.031170e+02 -2.174401e+01 -1.307217e+02 3.774266e-08 -3.636364e-08 NaN 4.279370e-01 -2.279180e+00 1.701800e-02 0 0 NaN 
0 0 0 -1.805600e-02 -2.585141e+00 -1.067950e+01 -1.325330e+00 1.582742e+01 3.618470e-01 1.175429e+00 -1.427800e+01 -2.537900e-02 0 0 NaN -3.977990e-01 1.764376e+01 1.206170e-01 1.757700e+00 -1.837090e+01 4.345580e-01 0 0 6.651680e-08 -1.101488e-07 4.307956e-07 1.010000e-04 0 0 0 9.806550e+00 -4.495190e+01 -7.442630e+01 1.166347e+02 -2.260681e+01 1.346480e+02 NaN NaN 5.091449e-08 0 0 0 1.231215e+01 -5.067866e+01 1.056366e+02 -1.045691e+02 -1.543020e+01 -1.343371e+02 NaN NaN -1.346865e-07 -2.261700e-01 -1.058540e+00 -4.179000e-03 0 0 -1.902228e-08 
0 0 0 4.247447e-01 -3.008122e+00 -1.091595e+01 -2.363600e+00 1.639270e+01 6.673336e-01 1.964622e+00 -1.455880e+01 -7.539268e-02 0 0 NaN -9.014545e-01 1.729370e+01 2.711985e-01 1.461916e+00 -1.706931e+01 1.731210e-01 0 0 NaN -7.228895e-08 8.361037e-08 1.000000e-06 0 0 0 2.012030e+01 -3.946258e+01 -5.615502e+01 1.184893e+02 -1.919701e+01 1.400113e+02 1.655713e-08 NaN 2.242326e-07 0 0 0 -2.865665e+00 -4.857100e+01 8.583722e+01 -1.090690e+02 -9.476301e+00 -1.384165e+02 6.538020e-09 -5.142781e-08 NaN 1.333680e-01 -3.787340e-01 8.830000e-04 0 0 -1.065411e-07 
0 0 0 1.125650e+00 -2.318960e+00 -1.131508e+01 -4.340420e+00 1.409160e+01 1.058690e+00 3.130980e+00 -1.205910e+01 -2.250083e-01 0 0 6.558904e-08 -3.071415e+00 1.611197e+01 8.559840e-01 2.939146e+00 -1.694690e+01 -5.719000e-03 0 0 NaN -5.552494e-08 2.096158e-07 2.600000e-05 0 0 0 3.053240e+01 -3.374306e+01 -3.770480e+01 1.159420e+02 -1.368157e+01 1.430257e+02 1.996485e-08 -1.118754e-07 NaN 0 0 0 NaN -4.614898e+01 6.430450e+01 -1.098740e+02 -3.861885e+00 -1.399124e+02 2.811107e-08 -7.681478e-08 NaN 1.402400e-01 3.875220e-01 8.952345e-04 0 0 NaN 
0 0 0 1.158250e+00 -1.648862e+00 -1.167981e+01 -3.917320e+00 1.323930e+01 8.984710e-01 2.633510e+00 -1.170070e+01 -2.392490e-01 0 0 NaN -2.690250e+00 1.496000e+01 6.949610e-01 2.546820e+00 -1.606639e+01 -1.445000e-02 0 0 2.444453e-08 -5.814329e-08 4.554833e-07 4.159128e-05 0 0 0 3.855910e+01 -2.573929e+01 -2.165300e+01 1.080960e+02 -1.010980e+01 1.365111e+02 6.315729e-08 NaN NaN 0 0 0 1.484280e+01 -3.837329e+01 4.866895e+01 -1.102442e+02 2.921692e+00 -1.396398e+02 6.615465e-08 NaN -2.165384e-08 4.219396e-01 6.382505e-01 -5.586898e-04 0 0 -2.323656e-07 
